
<svg xmlns="http://www.w3.org/2000/svg" width="35" height="16" viewBox="0 0 35 16" fill="none">
  <path d="M30.0782 7.1072V14.4224H27.0122V1.7808H33.0814C34.5262 1.7808 35.25 3.4192 35.25 4.3136V7.1072C35.25 7.9968 34.5262 9.6384 33.0814 9.6384H30.0782V7.1072ZM30.0782 7.1072V4.3136H33.0814V7.1072H30.0782Z" fill="#F5C518"/>
  <path d="M0.75 14.4224V1.7808H3.816V14.4224H0.75Z" fill="#F5C518"/>
  <path d="M12.4311 14.4224H9.36511L6.19727 1.7808H9.26327L10.9406 8.2272L12.5651 1.7808H15.6311L12.4311 14.4224Z" fill="#F5C518"/>
  <path d="M16.721 14.4224V1.7808H22.7902C24.235 1.7808 24.9587 3.4192 24.9587 4.3136V14.4224H21.8927V4.3136H19.787V14.4224H16.721Z" fill="#F5C518"/>
</svg>
